<?xml version="1.0" standalone="no"?>
<!DOCTYPE svg PUBLIC "-//W3C//DTD SVG 20010904//EN"
 "http://www.w3.org/TR/2001/REC-SVG-20010904/DTD/svg10.dtd">
<svg version="1.0" xmlns="http://www.w3.org/2000/svg"
 width="500.000000pt" height="500.000000pt" viewBox="0 0 500.000000 500.000000"
 preserveAspectRatio="xMidYMid meet">
<metadata>
Created by potrace 1.14, written by Peter Selinger 2001-2017
</metadata>
<g transform="translate(0.000000,500.000000) scale(0.100000,-0.100000)"
fill="#000000" stroke="none">
<path d="M2211 4405 c-18 -21 -31 -47 -31 -62 0 -41 37 -108 81 -147 70 -64
110 -42 131 72 13 71 2 108 -44 147 -46 39 -98 35 -137 -10z m107 -82 c5 -17
-26 -29 -40 -15 -6 6 -7 15 -3 22 9 14 37 9 43 -7z"/>
<path d="M2437 4284 c-20 -21 5 -182 48 -303 18 -53 20 -145 3 -158 -26 -21
-66 -24 -83 -6 -22 21 -32 49 -56 152 -11 47 -25 91 -31 98 -13 16 -52 17 -79
3 -26 -14 -25 -50 1 -50 25 0 36 -22 50 -102 14 -81 60 -165 96 -174 35 -9 87
1 140 26 l44 22 0 65 c0 65 -42 267 -77 373 -17 51 -38 71 -56 54z"/>
<path d="M2690 4040 c0 -47 13 -53 105 -48 53 3 60 5 63 26 4 23 -3 26 -66 22
-26 -1 -35 3 -39 19 -4 15 -13 21 -34 21 -27 0 -29 -3 -29 -40z"/>
<path d="M1937 3950 c-45 -28 -67 -66 -52 -89 10 -17 23 -13 57 19 33 32 68
46 93 37 24 -10 74 -87 92 -144 19 -59 14 -71 -33 -79 -36 -7 -54 -21 -54 -44
0 -34 50 -35 112 -3 33 16 58 60 58 101 0 37 -61 160 -99 201 -40 43 -107 44
-174 1z"/>
<path d="M2694 3916 c-3 -8 -4 -27 -2 -43 3 -28 3 -28 86 -31 82 -3 83 -2 80
20 -3 20 -10 23 -49 26 -37 2 -48 7 -52 23 -6 23 -55 27 -63 5z"/>
<path d="M2903 3824 c-8 -22 22 -44 58 -44 42 0 231 -64 292 -99 60 -34 79
-38 95 -18 14 16 6 26 -45 60 -132 85 -382 148 -400 101z"/>
<path d="M1717 3824 c-14 -14 -7 -61 12 -78 11 -10 45 -51 76 -92 65 -85 67
-103 13 -147 -34 -27 -41 -29 -64 -18 -24 10 -26 16 -21 51 6 46 -9 64 -46 55
-19 -5 -29 0 -46 21 -13 16 -19 34 -15 43 14 35 9 46 -20 46 -20 0 -35 -9 -49
-27 l-20 -27 29 -48 c17 -28 42 -54 61 -62 21 -9 33 -23 37 -43 8 -43 52 -78
96 -78 72 0 170 87 170 150 0 17 -30 66 -87 140 -80 107 -108 132 -126 114z"/>
<path d="M1192 3768 c-19 -19 -14 -42 13 -68 21 -19 30 -22 43 -14 26 17 26
43 1 70 -25 27 -39 30 -57 12z"/>
<path d="M1292 3668 c-15 -15 -16 -45 -1 -53 6 -4 -21 -39 -65 -85 -78 -80
-87 -98 -61 -120 12 -10 18 -10 31 1 39 32 160 163 172 186 13 23 11 28 -14
54 -30 32 -44 35 -62 17z"/>
<path d="M3275 3586 c-40 -17 -52 -33 -66 -89 -11 -39 -11 -51 3 -79 26 -56
104 -133 166 -166 53 -29 61 -36 72 -77 17 -60 106 -187 128 -183 9 2 34 34
55 71 36 63 42 68 66 62 14 -3 78 -9 142 -12 l117 -5 36 -77 c48 -103 90 -235
112 -356 26 -137 26 -382 0 -520 -113 -607 -584 -1078 -1191 -1191 -137 -26
-383 -26 -520 0 -277 51 -565 197 -758 384 -222 215 -377 502 -433 807 -39
207 -22 487 42 693 24 81 24 92 -6 92 -22 0 -46 -69 -82 -234 -32 -148 -32
-436 1 -586 67 -313 199 -559 421 -780 221 -222 467 -354 780 -421 152 -33
438 -33 590 0 313 67 559 199 780 421 128 127 214 245 290 398 188 375 210
832 59 1222 l-31 81 21 49 c35 80 22 111 -35 90 -42 -16 -51 -12 -85 43 -19
28 -51 71 -73 95 l-39 43 26 27 c15 16 27 33 27 40 0 16 -62 60 -145 102 -56
29 -80 35 -139 36 -39 2 -88 9 -108 18 -46 20 -180 21 -223 2z m155 -44 c0 -5
-6 -16 -12 -25 -12 -15 -17 -15 -68 0 -45 13 -51 17 -35 24 27 10 115 11 115
1z m181 -84 c112 -69 232 -175 279 -245 17 -25 29 -47 26 -50 -7 -7 -182 8
-196 17 -10 6 -9 13 4 31 20 29 21 55 1 63 -16 6 -51 -26 -61 -56 -3 -10 -10
-18 -15 -18 -5 0 -19 -21 -29 -46 -11 -25 -26 -55 -34 -66 -13 -19 -15 -18
-46 27 -39 56 -48 128 -30 217 10 43 10 62 2 70 -17 17 -40 -8 -52 -56 -19
-71 -16 -68 -51 -51 -42 22 -114 89 -139 130 -20 33 -18 70 4 61 43 -18 120
-37 143 -34 21 2 33 13 48 41 11 20 25 35 32 33 7 -3 58 -33 114 -68z m145 5
c57 -31 64 -38 51 -50 -13 -13 -24 -7 -93 42 -89 65 -68 69 42 8z"/>
<path d="M1346 3470 c-39 -44 -45 -73 -20 -109 16 -23 16 -23 -6 -11 -30 16
-64 6 -84 -26 -14 -20 -15 -28 -5 -40 13 -16 46 -19 51 -4 2 6 57 -29 123 -79
111 -83 121 -88 137 -74 19 17 25 63 8 63 -19 0 -138 121 -161 165 l-24 45 21
20 c28 29 50 19 159 -74 50 -42 95 -76 101 -76 13 0 24 23 24 50 0 10 -12 26
-27 36 -15 9 -48 36 -73 59 -115 107 -166 119 -224 55z"/>
<path d="M1147 3163 c-4 -3 -7 -16 -7 -27 0 -17 28 -35 156 -95 127 -61 157
-72 165 -60 24 38 13 47 -145 122 -138 67 -157 73 -169 60z"/>
</g>
</svg>
